HIERARCHY
ROOT Hips
{
	OFFSET 0.00 0.00 0.00
	CHANNELS 6 Xposition Yposition Zposition Xrotation Yrotation Zrotation
	JOINT Spine
	{
		OFFSET 0.00000 7.06766 0.00000
		CHANNELS 3 Xrotation Yrotation Zrotation
		JOINT Head
		{
			OFFSET 0.00000 15.03989 0.00000
			CHANNELS 3 Xrotation Yrotation Zrotation
			End Site
			{
				OFFSET 0.00000 4.52755 0.00000
			}
		}
		JOINT LeftShoulder
		{
			OFFSET 0.00000 10.53037 0.00000
			CHANNELS 3 Xrotation Yrotation Zrotation
			JOINT LeftArm
			{
				OFFSET 7.02886 0.00000 0.00000
				CHANNELS 3 Xrotation Yrotation Zrotation
				JOINT LeftForeArm
				{
					OFFSET 10.79770 0.00000 0.00000
					CHANNELS 3 Yrotation Zrotation Xrotation
					JOINT LeftHand
					{
						OFFSET 7.90744 0.00000 0.00000
						CHANNELS 3 Xrotation Yrotation Zrotation
						JOINT LeftHandThumb1
						{
							OFFSET 0.00000 0.00000 0.00000
							CHANNELS 3 Xrotation Zrotation Yrotation
							End Site
							{
								OFFSET 0.00000 0.00000 3.93700
							}
						}
						End Site
						{
							OFFSET 3.93700 0.00000 0.00000
						}
					}
				}
			}
		}
		JOINT RightShoulder
		{
			OFFSET 0.00000 10.53037 0.00000
			CHANNELS 3 Xrotation Yrotation Zrotation
			JOINT RightArm
			{
				OFFSET -7.02886 0.00000 0.00000
				CHANNELS 3 Xrotation Yrotation Zrotation
				JOINT RightForeArm
				{
					OFFSET -10.79770 0.00000 0.00000
					CHANNELS 3 Yrotation Zrotation Xrotation
					JOINT RightHand
					{
						OFFSET -7.90744 0.00000 0.00000
						CHANNELS 3 Xrotation Yrotation Zrotation
						JOINT RightHandThumb1
						{
							OFFSET 0.00000 0.00000 0.00000
							CHANNELS 3 Xrotation Zrotation Yrotation
							End Site
							{
								OFFSET 0.00000 0.00000 3.93700
							}
						}
						End Site
						{
							OFFSET -3.93700 0.00000 0.00000
						}
					}
				}
			}
		}
	}
	JOINT LeftUpLeg
	{
		OFFSET 4.01300 0.00000 0.00000
		CHANNELS 3 Xrotation Yrotation Zrotation
		JOINT LeftLeg
		{
			OFFSET 0.00000 -16.89976 0.00000
			CHANNELS 3 Xrotation Yrotation Zrotation
			JOINT LeftFoot
			{
				OFFSET 0.00000 -17.38918 0.00000
				CHANNELS 3 Xrotation Yrotation Zrotation
				JOINT LeftToeBase
				{
					OFFSET 0.00000 -1.27456 4.75673
					CHANNELS 3 Xrotation Yrotation Zrotation
					End Site
					{
						OFFSET 0.00000 0.00000 2.95275
					}
				}
			}
		}
	}
	JOINT RightUpLeg
	{
		OFFSET -4.01300 0.00000 0.00000
		CHANNELS 3 Xrotation Yrotation Zrotation
		JOINT RightLeg
		{
			OFFSET 0.00000 -16.89976 0.00000
			CHANNELS 3 Xrotation Yrotation Zrotation
			JOINT RightFoot
			{
				OFFSET 0.00000 -17.38918 0.00000
				CHANNELS 3 Xrotation Yrotation Zrotation
				JOINT RightToeBase
				{
					OFFSET 0.00000 -1.27456 4.75673
					CHANNELS 3 Xrotation Yrotation Zrotation
					End Site
					{
						OFFSET 0.00000 0.00000 2.95275
					}
				}
			}
		}
	}
}
MOTION
Frames: 9
Frame Time: 0.008333
 21.0705 35.8380 -19.8766 159.0421 15.0230 177.3155 -8.8370 3.7694 -2.3071 -14.6245 1.3757 10.6249 -26.1673 -0.6613 -0.7319 13.0146 -24.9211 -73.4230 -3.6499 -0.0000 -3.2764 0.0008 0.0629 -0.6883 33.1476 -0.0000 26.2537 12.6705 -2.8452 11.9011 -9.9900 37.2348 68.0455 32.9603 0.0000 24.4323 -0.2307 1.5469 8.4838 32.8623 0.0000 -24.3270 -29.6577 11.6289 3.3423 16.9952 -0.0000 -0.0000 -25.3236 27.0514 8.3401 22.7800 0.0000 -0.0000 -15.2765 -6.4754 12.4391 -2.5815 0.0000 -0.0000 -19.1507 -31.8138 2.2794 14.3655 -0.0000 0.0000
 21.0313 35.8816 -19.8189 157.9008 15.1339 177.3473 -9.3046 3.2748 -2.2457 -15.6024 1.6819 10.8983 -26.1146 -0.6881 -0.7010 13.0338 -24.8885 -73.0772 -3.5984 -0.0000 -3.4722 -0.0013 -0.1063 -0.7039 33.1476 -0.0000 26.2537 12.6596 -2.6999 11.9270 -10.0753 37.5638 67.9822 33.3556 0.0000 24.3498 -0.2541 1.7049 8.4770 32.8623 0.0000 -24.3270 -30.7652 11.7795 3.5841 16.6486 0.0000 -0.0000 -24.8982 26.9045 8.0574 22.7580 -0.0000 -0.0000 -15.3939 -7.3747 12.7647 -3.0625 -0.0000 -0.0000 -19.1468 -32.2480 2.1499 14.3582 0.0000 -0.0000
 20.9933 35.9209 -19.7820 157.0025 15.1186 177.2951 -9.4927 2.6916 -2.1464 -16.5891 1.9533 11.1008 -26.1931 -0.7195 -0.7367 13.1478 -24.6334 -72.7167 -3.5960 0.0000 -3.6315 -0.0028 -0.2745 -0.5868 33.1476 -0.0000 26.2537 12.5638 -2.5439 11.9541 -10.0821 37.8877 67.8552 33.7657 0.0000 24.3398 -0.2517 1.6825 8.5080 32.8623 0.0000 -24.3270 -31.5868 11.7975 3.7492 16.2470 -0.0000 -0.0000 -24.4923 26.8137 7.9719 22.5345 -0.0000 0.0000 -15.1422 -8.3938 13.0655 -3.3654 -0.0000 0.0000 -19.0473 -32.4992 1.8814 14.1568 0.0000 -0.0000
 20.9413 35.9664 -19.7221 155.5870 15.3689 177.5680 -10.3367 2.4413 -2.2674 -17.3577 2.1772 11.4250 -26.2168 -0.7893 -0.5925 13.3059 -24.3548 -72.4955 -3.6130 0.0000 -3.8566 -0.0015 -0.4184 -0.2026 33.1476 -0.0000 26.2537 12.5052 -2.4654 11.9757 -10.0520 38.2898 67.8632 34.1020 0.0000 24.2511 -0.2649 1.7853 8.4426 32.8623 0.0000 -24.3270 -32.8624 11.9057 3.8405 15.7859 -0.0000 -0.0000 -24.0077 26.9474 7.6772 22.3675 0.0000 0.0000 -15.6333 -8.8862 13.1807 -3.1870 0.0000 0.0000 -19.0009 -32.8896 1.5216 13.6662 -0.0000 0.0000
 20.9039 36.0046 -19.6961 154.6885 15.4625 177.6248 -10.5960 2.1166 -2.3006 -18.2030 2.3294 11.6950 -26.2004 -0.8700 -0.5884 13.3822 -24.0370 -72.1777 -3.6229 0.0000 -4.1973 0.0038 -0.5272 0.4134 33.1476 -0.0000 26.2537 12.4794 -2.3190 12.0183 -10.1255 38.6240 67.8012 34.3738 0.0000 24.2439 -0.2568 1.7727 8.2444 32.8623 0.0000 -24.3270 -33.5829 11.8774 3.9318 15.3041 -0.0000 -0.0000 -23.6474 27.0171 7.5158 22.2744 -0.0000 -0.0000 -15.4175 -9.5874 13.3262 -2.8732 0.0000 -0.0000 -18.9649 -32.9907 1.1930 13.3828 0.0000 -0.0000
 20.8640 36.0404 -19.6786 153.9619 15.5188 177.6784 -10.6225 1.7625 -2.3866 -19.1096 2.4436 11.9867 -26.2249 -0.9078 -0.5639 13.4738 -23.7213 -71.8645 -3.6877 0.0000 -4.4710 0.0059 -0.5990 0.5644 33.1476 -0.0000 26.2537 12.2831 -2.1253 12.0710 -10.0610 39.0305 67.7045 34.5405 0.0000 24.2904 -0.2629 1.8725 7.9942 32.8623 0.0000 -24.3270 -34.0290 11.6759 3.9436 14.7274 -0.0000 -0.0000 -23.2566 27.0448 7.4634 22.0732 -0.0000 -0.0000 -14.9978 -10.1868 13.3832 -2.4156 0.0000 0.0000 -18.8823 -32.9991 0.7445 12.9168 -0.0000 0.0000
 20.8295 36.0743 -19.6679 153.2742 15.6832 177.7966 -10.6635 1.5911 -2.5908 -19.9048 2.5419 12.3847 -26.2080 -0.9893 -0.4624 13.5518 -23.3256 -71.5875 -3.8027 0.0000 -4.9242 0.0145 -0.6515 1.2706 33.1476 -0.0000 26.2537 12.2125 -1.9205 12.1753 -10.1488 39.4450 67.6064 34.6685 0.0000 23.9157 -0.2722 1.9474 7.9593 32.8623 0.0000 -24.3270 -34.4142 11.6887 3.9409 14.0972 -0.0000 -0.0000 -22.9062 27.1714 7.4698 21.9082 0.0000 0.0000 -14.5121 -10.4492 13.3621 -1.8690 0.0000 -0.0000 -18.7538 -32.9258 0.4125 12.5403 0.0000 -0.0000
 20.7938 36.1076 -19.6670 152.5056 15.8157 177.9595 -10.8743 1.4655 -2.8129 -20.5511 2.5386 12.7559 -26.1185 -1.0490 -0.3424 13.5986 -23.0012 -71.3798 -3.8254 0.0000 -5.2786 0.0232 -0.7845 1.6904 33.1476 -0.0000 26.2537 12.2239 -1.7987 12.2668 -10.2780 39.8862 67.6068 34.7057 0.0000 24.0235 -0.2609 1.9322 7.6910 32.8623 0.0000 -24.3270 -34.8177 11.6642 3.9051 13.4285 -0.0000 -0.0000 -22.5117 27.2167 7.4430 21.8086 -0.0000 -0.0000 -14.0149 -10.5256 13.2605 -1.3625 -0.0000 -0.0000 -18.4310 -32.8299 0.1729 12.0269 0.0000 0.0000
 20.7583 36.1382 -19.6736 151.7517 16.0420 178.2018 -11.1087 1.5221 -3.1360 -21.1648 2.4886 13.1641 -25.9821 -1.1390 -0.1559 13.6447 -22.7145 -71.1975 -3.8735 0.0000 -5.6844 0.0323 -0.8816 2.1008 33.1476 -0.0000 26.2537 12.1910 -1.7315 12.3653 -10.3803 40.4561 67.6098 34.6240 0.0000 23.8583 -0.2696 2.0205 7.6017 32.8623 0.0000 -24.3270 -35.1418 11.6894 3.8367 12.7015 -0.0000 -0.0000 -22.1337 27.2908 7.4950 21.6540 0.0000 -0.0000 -13.4102 -10.4038 13.0748 -0.8664 -0.0000 -0.0000 -18.0659 -32.5378 -0.0658 11.1607 -0.0000 -0.0000
